<?xml version="1.0" standalone="no"?>
<!DOCTYPE svg PUBLIC "-//W3C//DTD SVG 20010904//EN"
 "http://www.w3.org/TR/2001/REC-SVG-20010904/DTD/svg10.dtd">
<svg version="1.0" xmlns="http://www.w3.org/2000/svg"
 width="1120.000000pt" height="1120.000000pt" viewBox="0 0 1120.000000 1120.000000"
 preserveAspectRatio="xMidYMid meet">

<g transform="translate(0.000000,1120.000000) scale(0.100000,-0.100000)"
fill="#000000" stroke="none">
<path d="M5420 8799 c-186 -105 -355 -185 -555 -264 -480 -190 -939 -290
-1498 -326 -158 -10 -192 -15 -213 -31 l-24 -19 0 -1267 c0 -759 4 -1313 10
-1382 40 -459 191 -917 437 -1325 169 -282 327 -480 574 -720 214 -208 415
-363 677 -522 189 -115 584 -301 741 -349 43 -14 47 -13 160 32 149 59 451
205 578 279 903 531 1517 1345 1707 2266 60 291 59 259 63 1666 4 1162 3 1295
-12 1322 -8 17 -25 33 -38 35 -12 3 -110 10 -217 16 -700 40 -1361 227 -1945
548 -55 31 -127 70 -160 89 -93 51 -114 47 -285 -48z m279 -224 c251 -139 502
-249 790 -346 439 -148 804 -221 1229 -245 l122 -7 0 -1191 c0 -1310 0 -1320
-62 -1601 -122 -560 -431 -1105 -869 -1529 -328 -319 -696 -560 -1172 -770
l-127 -56 -83 31 c-198 76 -530 250 -726 381 -373 250 -646 516 -916 893 -180
251 -350 615 -430 917 -92 352 -95 407 -95 1772 l0 1154 108 6 c687 44 1417
250 1982 560 74 41 142 75 151 75 9 1 53 -19 98 -44z"/>
<path d="M6095 8020 c-103 -56 -297 -228 -405 -360 -71 -86 -163 -227 -211
-322 -49 -98 -99 -223 -99 -248 0 -11 -4 -20 -8 -20 -4 0 -68 182 -141 405
-143 435 -148 444 -219 460 -69 15 -291 -53 -462 -141 -454 -234 -773 -678
-881 -1229 -21 -104 -24 -150 -24 -345 0 -195 3 -240 23 -340 71 -356 217
-640 457 -889 l90 -93 -3 -162 c-4 -181 11 -299 54 -438 121 -386 420 -677
800 -779 112 -30 359 -38 474 -15 269 55 491 177 695 381 129 130 218 256 304
430 110 222 165 408 191 654 10 95 24 159 79 359 32 117 44 226 35 337 -5 55
-8 103 -9 107 0 3 35 29 78 57 217 142 393 378 490 658 73 209 109 427 111
678 2 238 -11 256 -196 263 -180 8 -417 -27 -603 -87 -33 -10 -63 -16 -66 -13
-4 4 -19 41 -34 82 -69 186 -215 433 -331 559 -53 56 -64 64 -104 68 -34 3
-55 -1 -85 -17z m118 -237 c64 -84 129 -187 174 -278 45 -88 93 -217 93 -243
-1 -10 -20 -26 -48 -39 -67 -32 -152 -89 -222 -151 l-60 -53 0 33 c0 18 8 104
17 191 15 141 15 162 2 185 -29 53 -105 63 -134 18 -8 -12 -23 -101 -35 -211
-12 -104 -24 -192 -26 -194 -2 -2 -30 39 -63 90 -93 147 -110 169 -134 178
-29 11 -72 -5 -91 -34 -32 -49 -22 -73 120 -291 l135 -207 -40 -103 c-23 -56
-41 -106 -41 -110 0 -28 -23 -84 -34 -84 -7 0 -34 -11 -59 -24 l-47 -23 -19
41 c-29 65 -105 158 -156 191 l-47 30 5 115 c7 142 36 249 112 407 74 156 180
307 299 428 101 101 216 195 242 195 7 0 33 -26 57 -57z m-1213 -149 c22 -70
40 -132 40 -138 0 -17 219 -688 234 -716 14 -26 28 -67 46 -136 9 -37 18 -46
79 -83 38 -22 81 -55 96 -72 22 -27 75 -120 75 -132 0 -6 -178 -143 -250 -192
-111 -76 -241 -157 -317 -197 -245 -128 -448 -324 -599 -580 -34 -56 -64 -114
-67 -128 -3 -14 -19 -60 -35 -103 l-29 -79 -62 69 c-128 138 -255 357 -319
548 -50 147 -73 274 -79 445 -18 479 124 881 423 1198 175 187 362 308 595
387 57 19 109 35 116 35 7 0 30 -56 53 -126z m2334 -534 c-3 -405 -140 -777
-373 -1011 -76 -75 -159 -135 -171 -123 -4 5 -17 30 -28 57 l-21 47 40 0 c31
0 47 7 70 29 31 31 36 55 18 94 -17 37 -55 54 -181 76 -122 22 -168 35 -168
49 0 4 31 38 68 75 l68 68 233 -3 233 -3 24 28 c13 16 24 41 24 57 0 78 -29
90 -216 90 l-146 0 93 100 c124 133 149 167 149 203 0 44 -35 77 -81 77 -31 0
-46 -7 -76 -37 -44 -43 -184 -205 -239 -276 -20 -26 -38 -46 -39 -45 -7 8 -14
106 -14 204 -1 94 -4 116 -20 135 -27 34 -86 32 -117 -5 -24 -27 -24 -29 -24
-274 l-1 -247 -29 -33 -30 -32 -42 21 c-67 34 -178 69 -241 76 -32 3 -60 9
-62 13 -8 13 89 194 137 256 88 115 262 256 402 326 190 96 516 170 716 164
l45 -1 -1 -155z m-1218 -781 c119 -22 281 -115 375 -216 101 -108 147 -203
174 -362 28 -159 19 -257 -41 -466 -21 -69 -44 -183 -55 -270 -42 -320 -128
-561 -286 -798 -58 -87 -223 -260 -312 -328 -85 -64 -262 -152 -376 -186 -81
-24 -107 -26 -255 -27 -181 -1 -227 7 -366 65 -414 172 -665 649 -589 1119 51
315 232 620 489 826 83 66 215 149 387 244 54 29 160 103 240 167 195 156 272
199 404 228 76 17 135 18 211 4z"/>
<path d="M5800 5553 c-14 -2 -88 -20 -165 -40 -270 -68 -446 -155 -575 -283
-171 -169 -249 -396 -206 -600 38 -182 156 -338 314 -418 101 -50 174 -66 277
-59 257 17 480 213 590 519 47 133 59 228 52 427 -6 172 -18 237 -61 335 -24
54 -85 116 -114 116 -9 0 -33 2 -52 4 -19 2 -46 2 -60 -1z m-187 -180 c-7 -2
-19 -2 -25 0 -7 3 -2 5 12 5 14 0 19 -2 13 -5z m-133 -107 c0 -6 -21 -19 -48
-30 -75 -29 -152 -83 -219 -153 -35 -36 -63 -69 -63 -74 0 -5 -7 -9 -15 -9
-40 0 4 119 65 173 46 43 127 85 190 102 50 13 90 9 90 -9z m-503 -518 c-2
-13 -4 -5 -4 17 -1 22 1 32 4 23 2 -10 2 -28 0 -40z m203 -12 c0 -2 -7 -7 -16
-10 -8 -3 -12 -2 -9 4 6 10 25 14 25 6z m-63 -22 c-3 -3 -12 -4 -19 -1 -8 3
-5 6 6 6 11 1 17 -2 13 -5z"/>
<path d="M3932 1803 l3 -208 43 -3 42 -3 0 74 c0 53 4 78 15 87 12 10 23 -2
70 -74 l55 -86 50 0 c49 0 50 1 39 23 -7 12 -39 61 -72 109 -32 49 -57 94 -54
100 3 7 35 51 72 98 l67 85 -47 3 c-56 4 -66 -4 -132 -100 -25 -37 -50 -68
-55 -68 -4 0 -8 38 -8 85 l0 85 -45 0 -45 0 2 -207z"/>
<path d="M4357 1809 c-4 -111 -4 -205 -1 -210 3 -5 66 -9 139 -9 l135 0 6 25
c12 49 2 55 -96 55 l-90 0 0 50 0 50 78 0 c43 0 81 2 84 5 2 3 3 18 0 35 l-4
29 -82 3 -81 3 -3 43 -3 42 95 0 96 0 0 40 0 40 -133 0 -134 0 -6 -201z"/>
<path d="M4720 1970 l0 -40 63 0 62 0 -1 -112 c0 -62 1 -139 4 -171 l4 -58 41
3 42 3 3 167 2 167 58 3 57 3 3 38 3 37 -170 0 -171 0 0 -40z"/>
<path d="M5230 1988 c-138 -70 -129 -334 13 -387 45 -17 137 -13 184 9 49 22
76 61 94 132 24 100 -8 196 -80 245 -47 32 -148 32 -211 1z m143 -59 c64 -29
75 -192 16 -245 -31 -28 -93 -25 -125 7 -31 32 -44 124 -24 183 18 56 78 80
133 55z"/>
<path d="M5840 1799 l0 -212 108 5 c178 9 232 53 239 197 4 65 1 83 -19 120
-13 25 -34 53 -48 63 -32 23 -113 38 -206 38 l-74 0 0 -211z m223 100 c24 -26
27 -37 27 -100 0 -65 -2 -73 -29 -100 -25 -24 -37 -29 -80 -29 l-51 0 0 128
c0 71 3 132 7 136 5 4 28 5 53 1 32 -4 53 -15 73 -36z"/>
<path d="M6310 1800 l0 -210 45 0 45 0 0 210 0 210 -45 0 -45 0 0 -210z"/>
<path d="M6540 1800 l0 -211 138 3 137 3 0 35 0 35 -92 3 -93 3 0 49 0 50 85
0 85 0 0 35 0 34 -82 3 -83 3 -3 42 -3 42 88 3 88 3 0 35 0 35 -132 3 -133 3
0 -211z"/>
<path d="M6904 1996 c-3 -8 -4 -25 -2 -38 3 -21 9 -23 65 -26 l63 -3 2 -167 3
-167 43 -3 42 -3 0 170 0 171 66 0 65 0 -3 38 -3 37 -168 3 c-139 2 -168 0
-173 -12z"/>
<path d="M4685 1353 c3 -10 18 -60 32 -110 23 -82 28 -93 48 -93 20 0 25 10
41 80 11 44 22 80 25 80 4 0 10 -12 14 -27 27 -112 37 -134 58 -131 18 3 27
20 53 111 28 95 30 107 15 107 -13 0 -23 -20 -40 -80 -13 -44 -27 -83 -32 -85
-4 -3 -10 9 -14 27 -18 93 -36 138 -54 138 -14 0 -23 -18 -41 -86 -12 -47 -26
-82 -30 -77 -4 4 -16 43 -25 86 -14 65 -20 77 -37 77 -15 0 -18 -4 -13 -17z"/>
<path d="M5090 1260 l0 -110 70 0 c56 0 70 3 70 15 0 11 -12 15 -50 15 l-50 0
0 34 c0 33 2 35 45 42 25 3 45 10 45 15 0 5 -20 9 -45 9 -43 0 -45 1 -45 29 0
31 18 41 73 41 15 0 27 5 27 10 0 6 -30 10 -70 10 l-70 0 0 -110z"/>
<path d="M5350 1270 c0 -55 -1 -103 -2 -107 -6 -16 103 -14 128 2 33 21 41 60
18 86 -13 15 -15 22 -6 31 19 19 14 66 -7 78 -11 5 -45 10 -75 10 l-56 0 0
-100z m104 67 c10 -7 17 -22 15 -33 -3 -15 -14 -20 -47 -22 -41 -3 -42 -2 -42
27 0 40 38 54 74 28z m13 -103 c10 -27 -11 -49 -51 -52 -35 -3 -36 -2 -36 32
0 35 1 36 40 36 28 0 43 -5 47 -16z"/>
<path d="M5632 1358 c-18 -18 -15 -73 6 -90 9 -8 31 -20 49 -27 33 -13 48 -35
37 -53 -4 -6 -28 -8 -60 -5 -41 4 -54 2 -54 -8 0 -17 22 -25 69 -25 46 0 81
24 81 55 0 30 -22 52 -71 72 -29 11 -39 21 -39 38 0 26 28 37 71 28 22 -4 29
-2 29 11 0 13 -11 16 -53 16 -29 0 -58 -5 -65 -12z"/>
<path d="M5870 1260 c0 -91 3 -110 15 -110 12 0 15 19 15 110 0 91 -3 110 -15
110 -12 0 -15 -19 -15 -110z"/>
<path d="M6010 1355 c0 -10 11 -15 35 -15 l35 0 0 -96 c0 -86 2 -95 18 -92 15
3 17 15 14 96 -3 99 -7 93 52 96 11 1 21 7 24 14 3 9 -20 12 -87 12 -74 0 -91
-3 -91 -15z"/>
<path d="M6297 1303 c-4 -38 -7 -87 -7 -110 l0 -43 70 0 c56 0 70 3 70 15 0
11 -12 15 -50 15 l-50 0 0 35 c0 30 3 35 23 35 32 0 67 11 67 21 0 4 -21 9
-47 11 -43 3 -46 5 -48 31 -1 26 1 27 52 27 40 0 53 4 53 15 0 12 -14 15 -64
15 l-63 0 -6 -67z"/>
</g>
</svg>
